<svg width="37" height="37" viewBox="0 0 37 37" fill="none" xmlns="http://www.w3.org/2000/svg">
<path d="M26.6282 3.04279C27.0653 2.60568 27.5843 2.25895 28.1554 2.02238C28.7265 1.78582 29.3386 1.66406 29.9568 1.66406C30.5749 1.66406 31.1871 1.78582 31.7582 2.02238C32.3293 2.25895 32.8482 2.60568 33.2853 3.04279C33.7224 3.47991 34.0692 3.99883 34.3057 4.56995C34.5423 5.14106 34.6641 5.75318 34.6641 6.37135C34.6641 6.98952 34.5423 7.60164 34.3057 8.17275C34.0692 8.74386 33.7224 9.26279 33.2853 9.6999L10.8176 32.1676L1.66406 34.6641L4.16048 25.5105L26.6282 3.04279Z" stroke="black" stroke-width="3.32855" stroke-linecap="round" stroke-linejoin="round"/>
</svg>
