<svg width="44" height="44" viewBox="0 0 44 44" fill="none" xmlns="http://www.w3.org/2000/svg">
<mask id="mask0_635_8" style="mask-type:alpha" maskUnits="userSpaceOnUse" x="0" y="0" width="44" height="44">
<rect width="44" height="44" fill="#D9D9D9"/>
</mask>
<g mask="url(#mask0_635_8)">
<path d="M21.9998 38.5001L19.3415 36.1167C16.2554 33.3362 13.704 30.9376 11.6873 28.9209C9.67067 26.9042 8.0665 25.0938 6.87484 23.4896C5.68317 21.8855 4.85053 20.4112 4.37692 19.0667C3.90331 17.7223 3.6665 16.3473 3.6665 14.9417C3.6665 12.0695 4.629 9.6709 6.554 7.7459C8.479 5.8209 10.8776 4.8584 13.7498 4.8584C15.3387 4.8584 16.8512 5.19451 18.2873 5.86673C19.7234 6.53895 20.9609 7.48618 21.9998 8.7084C23.0387 7.48618 24.2762 6.53895 25.7123 5.86673C27.1485 5.19451 28.6609 4.8584 30.2498 4.8584C33.1221 4.8584 35.5207 5.8209 37.4457 7.7459C39.3707 9.6709 40.3332 12.0695 40.3332 14.9417C40.3332 16.3473 40.0964 17.7223 39.6228 19.0667C39.1491 20.4112 38.3165 21.8855 37.1248 23.4896C35.9332 25.0938 34.329 26.9042 32.3123 28.9209C30.2957 30.9376 27.7443 33.3362 24.6582 36.1167L21.9998 38.5001Z" fill="#1189BC"/>
</g>
</svg>
