<svg width="44" height="44" viewBox="0 0 44 44" fill="none" xmlns="http://www.w3.org/2000/svg">
<mask id="mask0_397_531" style="mask-type:alpha" maskUnits="userSpaceOnUse" x="0" y="0" width="44" height="44">
<rect width="44" height="44" fill="#D9D9D9"/>
</mask>
<g mask="url(#mask0_397_531)">
<path d="M21.9998 38.5001L19.3415 36.1167C16.2554 33.3362 13.704 30.9376 11.6873 28.9209C9.67067 26.9042 8.0665 25.0938 6.87484 23.4896C5.68317 21.8855 4.85053 20.4112 4.37692 19.0667C3.90331 17.7223 3.6665 16.3473 3.6665 14.9417C3.6665 12.0695 4.629 9.6709 6.554 7.7459C8.479 5.8209 10.8776 4.8584 13.7498 4.8584C15.3387 4.8584 16.8512 5.19451 18.2873 5.86673C19.7234 6.53895 20.9609 7.48618 21.9998 8.7084C23.0387 7.48618 24.2762 6.53895 25.7123 5.86673C27.1485 5.19451 28.6609 4.8584 30.2498 4.8584C33.1221 4.8584 35.5207 5.8209 37.4457 7.7459C39.3707 9.6709 40.3332 12.0695 40.3332 14.9417C40.3332 16.3473 40.0964 17.7223 39.6228 19.0667C39.1491 20.4112 38.3165 21.8855 37.1248 23.4896C35.9332 25.0938 34.329 26.9042 32.3123 28.9209C30.2957 30.9376 27.7443 33.3362 24.6582 36.1167L21.9998 38.5001ZM21.9998 33.5501C24.9332 30.9223 27.3471 28.6688 29.2415 26.7896C31.1359 24.9105 32.6332 23.2758 33.7332 21.8855C34.8332 20.4952 35.5971 19.2577 36.0248 18.173C36.4526 17.0883 36.6665 16.0112 36.6665 14.9417C36.6665 13.1084 36.0554 11.5806 34.8332 10.3584C33.6109 9.13618 32.0832 8.52506 30.2498 8.52506C28.8137 8.52506 27.4846 8.92993 26.2623 9.73965C25.0401 10.5494 24.1998 11.5806 23.7415 12.8334H20.2582C19.7998 11.5806 18.9596 10.5494 17.7373 9.73965C16.5151 8.92993 15.1859 8.52506 13.7498 8.52506C11.9165 8.52506 10.3887 9.13618 9.1665 10.3584C7.94428 11.5806 7.33317 13.1084 7.33317 14.9417C7.33317 16.0112 7.54706 17.0883 7.97484 18.173C8.40262 19.2577 9.1665 20.4952 10.2665 21.8855C11.3665 23.2758 12.8637 24.9105 14.7582 26.7896C16.6526 28.6688 19.0665 30.9223 21.9998 33.5501Z" fill="white"/>
</g>
</svg>
