<svg width="44" height="39" viewBox="0 0 44 39" fill="none" xmlns="http://www.w3.org/2000/svg">
<path d="M38.8915 5.00632C37.9125 4.02692 36.7502 3.24998 35.4709 2.7199C34.1916 2.18982 32.8204 1.91699 31.4356 1.91699C30.0509 1.91699 28.6797 2.18982 27.4004 2.7199C26.1211 3.24998 24.9588 4.02692 23.9798 5.00632L21.9481 7.03799L19.9165 5.00632C17.9391 3.02891 15.2571 1.91802 12.4606 1.91802C9.66416 1.91802 6.98222 3.02891 5.00481 5.00632C3.0274 6.98373 1.9165 9.66568 1.9165 12.4622C1.9165 15.2586 3.0274 17.9406 5.00481 19.918L7.03648 21.9497L21.9481 36.8613L36.8598 21.9497L38.8915 19.918C39.8709 18.939 40.6478 17.7767 41.1779 16.4974C41.708 15.2181 41.9808 13.8469 41.9808 12.4622C41.9808 11.0774 41.708 9.70619 41.1779 8.42689C40.6478 7.1476 39.8709 5.98527 38.8915 5.00632Z" stroke="#2D231D" stroke-width="3.83333" stroke-linecap="round" stroke-linejoin="round"/>
</svg>
