<svg width="25" height="25" viewBox="0 0 25 25" fill="none" xmlns="http://www.w3.org/2000/svg">
<mask id="mask0_397_676" style="mask-type:alpha" maskUnits="userSpaceOnUse" x="0" y="0" width="25" height="25">
<rect width="25" height="25" fill="#D9D9D9"/>
</mask>
<g mask="url(#mask0_397_676)">
<path d="M7.94336 6.66634L10.86 2.8903C11.0684 2.61252 11.3158 2.40853 11.6022 2.27832C11.8887 2.14811 12.1882 2.08301 12.5007 2.08301C12.8132 2.08301 13.1126 2.14811 13.3991 2.27832C13.6855 2.40853 13.9329 2.61252 14.1413 2.8903L17.0579 6.66634L21.485 8.15072C21.9364 8.28961 22.2923 8.54568 22.5527 8.91894C22.8132 9.29221 22.9434 9.70454 22.9434 10.1559C22.9434 10.3643 22.913 10.5726 22.8522 10.7809C22.7915 10.9893 22.6916 11.1889 22.5527 11.3799L19.6882 15.4424L19.7923 19.7132C19.8097 20.3209 19.61 20.833 19.1934 21.2497C18.7767 21.6663 18.2906 21.8747 17.735 21.8747C17.7003 21.8747 17.5093 21.8486 17.1621 21.7965L12.5007 20.4945L7.83919 21.7965C7.75239 21.8313 7.6569 21.853 7.55273 21.8617C7.44857 21.8703 7.35308 21.8747 7.26628 21.8747C6.71072 21.8747 6.22461 21.6663 5.80794 21.2497C5.39128 20.833 5.19162 20.3209 5.20898 19.7132L5.31315 15.4163L2.47461 11.3799C2.33572 11.1889 2.23589 10.9893 2.17513 10.7809C2.11437 10.5726 2.08398 10.3643 2.08398 10.1559C2.08398 9.7219 2.20985 9.31825 2.46159 8.94499C2.71332 8.57172 3.06489 8.30697 3.51628 8.15072L7.94336 6.66634Z" fill="#FA8B14"/>
</g>
</svg>
