<svg width="34" height="40" viewBox="0 0 34 40" fill="none" xmlns="http://www.w3.org/2000/svg">
<path d="M31.6665 16.667C31.6665 28.3337 16.6665 38.3337 16.6665 38.3337C16.6665 38.3337 1.6665 28.3337 1.6665 16.667C1.6665 12.6887 3.24686 8.87344 6.0599 6.06039C8.87295 3.24734 12.6883 1.66699 16.6665 1.66699C20.6448 1.66699 24.4601 3.24734 27.2731 6.06039C30.0861 8.87344 31.6665 12.6887 31.6665 16.667Z" stroke="#2D231D" stroke-width="3.33333" stroke-linecap="round" stroke-linejoin="round"/>
<path d="M16.6665 21.667C19.4279 21.667 21.6665 19.4284 21.6665 16.667C21.6665 13.9056 19.4279 11.667 16.6665 11.667C13.9051 11.667 11.6665 13.9056 11.6665 16.667C11.6665 19.4284 13.9051 21.667 16.6665 21.667Z" stroke="#2D231D" stroke-width="3.33333" stroke-linecap="round" stroke-linejoin="round"/>
</svg>
