<svg width="39" height="39" viewBox="0 0 39 39" fill="none" xmlns="http://www.w3.org/2000/svg">
<path d="M19.3153 0C29.9591 0 38.6307 8.67145 38.6307 19.3153C38.6307 25.9465 35.5361 29.075 31.6254 29.075C29.3471 29.075 27.3747 27.8848 26.2525 26.1165C24.4842 27.9188 22.0358 29.0411 19.3153 29.0411C13.9424 29.0411 9.58963 24.6883 9.58963 19.3153C9.58963 13.9424 13.9424 9.58963 19.3153 9.58963C24.6883 9.58963 29.0411 13.9424 29.0411 19.3153V22.4778C29.0411 24.0761 30.1632 25.1983 31.6254 25.1983C33.3597 25.1983 34.788 23.7361 34.788 19.3153C34.788 10.7799 27.8508 3.84266 19.3153 3.84266C10.7799 3.84266 3.84266 10.7799 3.84266 19.3153C3.84266 27.8508 10.7799 34.788 19.3153 34.788C24.2461 34.788 27.6467 32.3396 27.6467 32.3396L30.1972 35.2641C30.1972 35.2641 25.8444 38.6307 19.3153 38.6307C8.67145 38.6307 0 29.9591 0 19.3153C0 8.67145 8.67145 0 19.3153 0ZM13.4323 19.3153C13.4323 22.5459 16.0507 25.1983 19.3153 25.1983C22.5459 25.1983 25.1983 22.5459 25.1983 19.3153C25.1983 16.0507 22.5459 13.4323 19.3153 13.4323C16.0507 13.4323 13.4323 16.0507 13.4323 19.3153Z" fill="white"/>
</svg>
