<svg width="40" height="39" viewBox="0 0 40 39" fill="none" xmlns="http://www.w3.org/2000/svg">
<path fill-rule="evenodd" clip-rule="evenodd" d="M20.0055 38.8887C16.1615 38.8887 14.3752 38.3275 11.2701 36.0829C9.30599 38.6081 3.08643 40.5816 2.81518 37.2052C2.81518 34.6707 2.25401 32.5289 1.61801 30.1907C0.86046 27.31 0 24.102 0 19.4537C0 8.352 9.1096 0 19.9027 0C30.705 0 39.1693 8.76352 39.1693 19.5566C39.2056 30.1827 30.6316 38.832 20.0055 38.8887ZM20.1645 9.5959C14.9083 9.32469 10.8118 12.9629 9.90457 18.6681C9.15634 23.3912 10.4844 29.1432 11.6161 29.4424C12.1586 29.5734 13.5241 28.4698 14.3752 27.6187C15.7825 28.5909 17.4214 29.1748 19.1264 29.3115C24.5727 29.5735 29.2264 25.4272 29.5921 19.9869C29.805 14.535 25.6116 9.91728 20.1645 9.60528V9.5959Z" fill="white"/>
</svg>
