<svg width="47" height="39" viewBox="0 0 47 39" fill="none" xmlns="http://www.w3.org/2000/svg">
<path d="M1.94482 3.88574V15.5555H13.6146" stroke="#2D231D" stroke-width="3.88991" stroke-linecap="round" stroke-linejoin="round"/>
<path d="M44.7337 35.0047V23.335H33.064" stroke="#2D231D" stroke-width="3.88991" stroke-linecap="round" stroke-linejoin="round"/>
<path d="M39.852 13.6104C38.8656 10.8229 37.1891 8.33067 34.979 6.3663C32.7689 4.40192 30.0972 3.02943 27.2131 2.37688C24.3291 1.72434 21.3268 1.81301 18.4863 2.63462C15.6458 3.45623 13.0598 4.98401 10.9694 7.07539L1.94482 15.5554M44.7339 23.3352L35.7093 31.8152C33.6189 33.9066 31.0329 35.4344 28.1924 36.256C25.3519 37.0776 22.3496 37.1663 19.4655 36.5137C16.5815 35.8612 13.9098 34.4887 11.6997 32.5243C9.48957 30.5599 7.81308 28.0677 6.82666 25.2802" stroke="#2D231D" stroke-width="3.88991" stroke-linecap="round" stroke-linejoin="round"/>
</svg>
