<svg width="45" height="29" viewBox="0 0 45 29" fill="none" xmlns="http://www.w3.org/2000/svg">
<path d="M24.4633 28.5822C9.11764 28.5822 0.364706 17.8531 0 0H7.68687C7.93936 13.1038 13.6063 18.6543 18.095 19.7987V0H25.333V11.3013C29.7656 10.8149 34.4226 5.66494 35.9936 0H43.2316C42.6396 2.938 41.4596 5.71982 39.7652 8.17145C38.0709 10.6231 35.8987 12.6918 33.3846 14.2482C36.1909 15.6703 38.6697 17.6832 40.6572 20.154C42.6447 22.6248 44.0959 25.4974 44.9149 28.5822H36.9475C36.2123 25.9028 34.718 23.5044 32.6519 21.6874C30.5858 19.8704 28.0398 18.7158 25.333 18.3681V28.5822H24.4633Z" fill="white"/>
</svg>
